<svg width="16" height="16" viewBox="0 0 16 16" fill="none" xmlns="http://www.w3.org/2000/svg">
<path d="M6.75 0H9.25C9.65625 0 10 0.34375 10 0.75V6H12.7188C13.2812 6 13.5625 6.6875 13.1562 7.09375L8.40625 11.8438C8.1875 12.0625 7.78125 12.0625 7.5625 11.8438L2.8125 7.09375C2.40625 6.6875 2.6875 6 3.25 6H6V0.75C6 0.34375 6.3125 0 6.75 0ZM16 11.75V15.25C16 15.6875 15.6562 16 15.25 16H0.75C0.3125 16 0 15.6875 0 15.25V11.75C0 11.3438 0.3125 11 0.75 11H5.3125L6.84375 12.5312C7.46875 13.1875 8.5 13.1875 9.125 12.5312L10.6562 11H15.25C15.6562 11 16 11.3438 16 11.75ZM12.125 14.5C12.125 14.1562 11.8438 13.875 11.5 13.875C11.1562 13.875 10.875 14.1562 10.875 14.5C10.875 14.8438 11.1562 15.125 11.5 15.125C11.8438 15.125 12.125 14.8438 12.125 14.5ZM14.125 14.5C14.125 14.1562 13.8438 13.875 13.5 13.875C13.1562 13.875 12.875 14.1562 12.875 14.5C12.875 14.8438 13.1562 15.125 13.5 15.125C13.8438 15.125 14.125 14.8438 14.125 14.5Z" fill="#1E3A8A"/>
</svg>
